<svg xmlns="http://www.w3.org/2000/svg" height="88" width="73.600227"><g fill="#6a1b9a"><path d="M61.60023 46a30.0328 30.0328 0 00-30-30 30.0484 30.0484 0 00-30 30v6l20-3.5586v8.3242l-16 7.2344v13.5274l-3.7891 7.5781A2.0009 2.0009 0 003.60023 88c28.8809 0 34.0079-10.3672 37.0723-16.5626C42.02593 68.6953 42.49083 68 43.60023 68c2.3554 0 3.834 2.2188 6.0488 5.836C52.42243 78.3633 55.87363 84 63.60023 84a2.0009 2.0009 0 001.7891-2.8946c-3.7891-7.578-3.7891-26.1718-3.7891-35.1054z"/><path d="M31.60023 0A42.0176 42.0176 0 00.51813 13.7773a2.0017 2.0017 0 00.2324 2.9063l6.7478 5.3977A33.6032 33.6032 0 0131.60023 12a34.0148 34.0148 0 0133.8987 32h6.1013a1.9988 1.9988 0 002-2 42.0472 42.0472 0 00-42-42z"/></g></svg>