<?xml version="1.0" encoding="UTF-8" standalone="no"?>
<!-- Created with Inkscape (http://www.inkscape.org/) -->

<svg
   xmlns:dc="http://purl.org/dc/elements/1.1/"
   xmlns:cc="http://creativecommons.org/ns#"
   xmlns:rdf="http://www.w3.org/1999/02/22-rdf-syntax-ns#"
   xmlns:svg="http://www.w3.org/2000/svg"
   xmlns="http://www.w3.org/2000/svg"
   xmlns:sodipodi="http://sodipodi.sourceforge.net/DTD/sodipodi-0.dtd"
   xmlns:inkscape="http://www.inkscape.org/namespaces/inkscape"
   width="58mm"
   height="37mm"
   viewBox="0 0 58 37"
   version="1.1"
   id="svg8"
   inkscape:version="0.92.3 (2405546, 2018-03-11)"
   sodipodi:docname="level3.svg">
  <defs
     id="defs2">
    <clipPath
       clipPathUnits="userSpaceOnUse"
       id="clipPath4654">
      <g
         inkscape:label="Clip"
         id="use4656">
        <g
           id="g4682">
          <path
             style="fill:#ff00ff;fill-opacity:1;stroke:#ffffff;stroke-width:0.26458332;stroke-opacity:0"
             d="m 78.452988,90.313843 h 6.236607 v 10.772317 h -6.236607 z"
             id="path4676"
             inkscape:connector-curvature="0" />
          <g
             id="g4680"
             transform="translate(0.40090429,0.06681738)">
            <path
               style="fill:#ff00ff;fill-opacity:1;stroke:#ffffff;stroke-width:0.25013652;stroke-opacity:0"
               d="m 84.295933,90.221283 a 3.1254318,3.1254318 0 0 1 -3.125431,3.125432 3.1254318,3.1254318 0 0 1 -3.125432,-3.125432 3.1254318,3.1254318 0 0 1 3.125432,-3.125432 3.1254318,3.1254318 0 0 1 3.125431,3.125432 z"
               id="path4678"
               inkscape:connector-curvature="0" />
          </g>
        </g>
      </g>
    </clipPath>
  </defs>
  <sodipodi:namedview
     id="base"
     pagecolor="#ffffff"
     bordercolor="#666666"
     borderopacity="1.0"
     inkscape:pageopacity="0.0"
     inkscape:pageshadow="2"
     inkscape:zoom="4.0000001"
     inkscape:cx="108.01118"
     inkscape:cy="70.934668"
     inkscape:document-units="mm"
     inkscape:current-layer="layer1"
     showgrid="false"
     inkscape:window-width="1920"
     inkscape:window-height="1053"
     inkscape:window-x="1920"
     inkscape:window-y="27"
     inkscape:window-maximized="1"
     inkscape:measure-start="90.7143,1027.5"
     inkscape:measure-end="-21.4286,1027.5"
     width="74mm"
     inkscape:pagecheckerboard="true" />
  <metadata
     id="metadata5">
    <rdf:RDF>
      <cc:Work
         rdf:about="">
        <dc:format>image/svg+xml</dc:format>
        <dc:type
           rdf:resource="http://purl.org/dc/dcmitype/StillImage" />
        <dc:title></dc:title>
      </cc:Work>
    </rdf:RDF>
  </metadata>
  <g
     inkscape:groupmode="layer"
     id="layer2"
     inkscape:label="Calque 2"
     transform="translate(0,-260)" />
  <g
     inkscape:label="Calque 1"
     inkscape:groupmode="layer"
     id="layer1"
     style="opacity:1"
     transform="translate(0,-260)">
    <g
       id="g1935"
       style="fill:#ffffff;fill-opacity:1;stroke:#030303;stroke-opacity:1"
       transform="translate(3.5465397)">
      <path
         inkscape:connector-curvature="0"
         id="rect815-35-0"
         d="m 5.1336508,267.72169 v 24.61555 H 46.282041 v -24.61555 z m 32.7370202,5.58312 h 10e-4 a 3.2884483,3.271874 0 0 1 3.28817,3.27215 3.2884483,3.271874 0 0 1 -0.008,0.15245 v 11.15125 h -6.56187 v -11.08821 a 3.2884483,3.271874 0 0 1 -0.008,-0.21549 3.2884483,3.271874 0 0 1 3.28818,-3.27215 z m -24.11584,0.0594 h 0.001 a 3.2884483,3.271874 0 0 1 3.28817,3.27163 3.2884483,3.271874 0 0 1 -0.008,0.15296 v 11.15126 h -6.56157 v -11.08818 a 3.2884483,3.271874 0 0 1 -0.008,-0.21601 3.2884483,3.271874 0 0 1 3.28817,-3.27163 z m 12.02097,0.0351 h 5.3e-4 a 3.2884483,3.271874 0 0 1 3.28869,3.27163 3.2884483,3.271874 0 0 1 -0.008,0.15296 v 11.15074 h -6.56135 v -11.08769 a 3.2884483,3.271874 0 0 1 -0.008,-0.21601 3.2884483,3.271874 0 0 1 3.28869,-3.27163 z"
         style="opacity:1;fill:#ffffff;fill-opacity:1;stroke:#030303;stroke-width:0.16102953;stroke-opacity:1" />
      <rect
         y="291.55057"
         x="0.091889925"
         height="5.3575387"
         width="50.723141"
         id="rect817-6-6"
         style="opacity:1;fill:#ffffff;fill-opacity:1;stroke:#030303;stroke-width:0.18377985;stroke-opacity:1" />
    </g>
  </g>
</svg>
