<svg xmlns="http://www.w3.org/2000/svg" width="100" height="99.999908"><defs><filter id="a" color-interpolation-filters="sRGB"><feFlood flood-color="#000" flood-opacity=".498039" result="flood"/><feComposite in="flood" in2="SourceGraphic" operator="out" result="composite1"/><feGaussianBlur in="composite1" result="blur" stdDeviation="2"/><feOffset dx="4" dy="4" result="offset"/><feComposite in="offset" in2="SourceGraphic" operator="atop" result="composite2"/></filter></defs><path fill="#787064" d="M49.064906 99.994907l-43.7843782-.234164v-6.197318l.9898108-.627634c.6556746-.415762 22.2394604-.618221 43.7296604-.610259 21.4902-.008 43.073986.194497 43.72966.610259l.989811.627634v6.197318l-43.784378.234164-.935093.005zm-37.40374-14.241895v-2.286049l1.660971-.912031 1.660971-.912031 35.016891.05461 35.016891-.05461 1.660971.912031 1.660971.912031v4.572108H11.661166zm6.53231-13.841618l-.53912-5.29209.744343-2.608851c1.051034-3.683797 7.050272-19.252363 8.619733-22.368996l1.311219-2.603818 7.19569 7.344382 7.195693 7.344382h14.55793l7.195693-7.344382 7.19569-7.344382 1.311219 2.603818c1.569461 3.116633 7.568699 18.685199 8.619733 22.368996l.744343 2.608851-.53912 5.29209-.53912 5.292089H18.732596zm17.511802-30.817173l-7.203966-7.214395v-8.886363l-1.629813-3.708227-1.629813-3.708225-2.823732-1.790528C13.155239 9.913008 3.1426873 20.799204 8.3340943 31.099231l1.2933917 2.566155 2.451543.876827 2.451543.876827 1.881469-.714093c4.19281-1.591337 5.863039-6.879738 3.340035-10.575463l-1.370038-2.006844h-3.756964l1.563842 1.173236 1.563845 1.173233-.295522 2.664367-.295523 2.664363h-4.376722l-1.121067-2.399823-1.121063-2.399823.871514-2.351839.871513-2.35184 2.095899-.979778 2.0959-.979779 2.747357 1.457644 2.747359 1.457642 1.335028 2.648768c1.767951 3.50771 1.657437 6.888816-.375314 11.482477l-1.671688 3.777716-2.665718 1.41433c-1.466147.777879-4.012959 1.414328-5.659582 1.414328H9.941268l-2.990436-2.038959-2.990436-2.038959-1.980198-4.021641L0 29.866662l.019334-5.903682.019335-5.903681 1.6298696-3.611859C3.6839869 9.981098 7.3006794 6.419444 11.762338 4.507241l3.401504-1.457839 10.23986.196028 10.239862.196028 3.080308-1.720729L41.80418 0h16.391638l3.080308 1.720729 3.080308 1.720729 10.239862-.196028 10.23986-.196028 3.401504 1.457839c4.461659 1.912203 8.078351 5.473857 10.093799 9.940199l1.62987 3.611859.01933 5.903681.01933 5.903682-1.980198 4.021641-1.980198 4.021641-2.990436 2.038959-2.990436 2.038959h-2.993864c-1.646623 0-4.193435-.636449-5.659582-1.414328l-2.665718-1.41433-1.671688-3.777716c-2.032742-4.593661-2.143256-7.974767-.375305-11.482477l1.335028-2.648768 2.747359-1.457642 2.747357-1.457644 2.0959.979779 2.095899.979778.871513 2.35184.871514 2.351839-1.121063 2.399823-1.121067 2.399823h-4.376722l-.295523-2.664363-.295522-2.664367 1.563845-1.173233 1.563842-1.173236H81.61796l-1.370038 2.006844c-2.523004 3.695725-.852775 8.984126 3.340035 10.575463l1.881469.714093 2.451543-.876827 2.451543-.876827 1.293392-2.566155c5.191407-10.300027-4.821145-21.186223-14.08386-15.312748l-2.823732 1.790528-1.629813 3.708225-1.629813 3.708227v8.886363l-7.203966 7.214395-7.203968 7.214449H42.909246z" filter="url(#a)"/></svg>